<?xml version="1.0" encoding="utf-8"?>
<!-- Generator: Adobe Illustrator 17.0.0, SVG Export Plug-In . SVG Version: 6.00 Build 0)  -->
<!DOCTYPE svg PUBLIC "-//W3C//DTD SVG 1.1//EN" "http://www.w3.org/Graphics/SVG/1.1/DTD/svg11.dtd">
<svg version="1.1" id="Layer_1" xmlns="http://www.w3.org/2000/svg" xmlns:xlink="http://www.w3.org/1999/xlink" x="0px" y="0px"
	 width="50px" height="50px" viewBox="0 0 50 50" enable-background="new 0 0 50 50" xml:space="preserve">
<rect x="-0.789" y="-0.724" fill="#5E6161" width="51.786" height="52.041"/>
<path fill="#FFFFFF" d="M35.598,43.886H14.403c-3.66,0-6.637-2.977-6.637-6.636V22.161c0-3.659,2.977-6.636,6.637-6.636h2.713
	c1.047-1.838,3.003-2.994,5.154-2.994h5.519c2.15,0,4.107,1.156,5.154,2.994h2.655c3.659,0,6.636,2.977,6.636,6.636V37.25
	C42.234,40.909,39.257,43.886,35.598,43.886z M14.403,17.524c-2.557,0-4.637,2.08-4.637,4.636V37.25c0,2.557,2.08,4.636,4.637,4.636
	h21.195c2.557,0,4.636-2.08,4.636-4.636V22.161c0-2.557-2.08-4.636-4.636-4.636h-3.933l-0.26-0.607
	c-0.62-1.45-2.039-2.387-3.616-2.387H22.27c-1.577,0-2.996,0.937-3.616,2.387l-0.259,0.607H14.403z M25,37.604
	c-4.663,0-8.456-3.793-8.456-8.457c0-4.663,3.793-8.456,8.456-8.456c4.663,0,8.457,3.793,8.457,8.456
	C33.457,33.811,29.663,37.604,25,37.604z M25,22.691c-3.56,0-6.456,2.896-6.456,6.456c0,3.56,2.896,6.457,6.456,6.457
	c3.56,0,6.457-2.896,6.457-6.457C31.457,25.587,28.56,22.691,25,22.691z"/>
</svg>
