<?xml version="1.0" encoding="utf-8"?>
<!-- Generator: Adobe Illustrator 23.0.3, SVG Export Plug-In . SVG Version: 6.00 Build 0)  -->
<svg version="1.1" id="Layer_1" xmlns="http://www.w3.org/2000/svg" xmlns:xlink="http://www.w3.org/1999/xlink" x="0px" y="0px"
	 viewBox="0 0 28.3 28.3" style="enable-background:new 0 0 28.3 28.3;" xml:space="preserve">
<style type="text/css">
	.st0{stroke:#000000;stroke-width:0.2;stroke-miterlimit:10;}
	.st1{fill:#FEFEFE;stroke:#000000;stroke-width:0.2;stroke-miterlimit:10;}
	.st2{fill:#976BCF;stroke:#976BCF;stroke-width:0.3;stroke-miterlimit:10;}
	.st3{fill:#976BCF;}
	.st4{fill:#ECEEEF;}
	.st5{fill:#EAECED;}
	.st6{fill:#EBEDEE;}
	.st7{fill:#E9EBEC;}
	.st8{fill:#F7F9FA;}
	.st9{fill:#F5F7F8;}
	.st10{fill:none;stroke:#020202;stroke-linecap:round;stroke-linejoin:round;stroke-miterlimit:10;}
	.st11{fill:#FFFFFF;}
	.st12{fill:#C9AAF2;}
	.st13{fill:#B28AE4;}
	.st14{fill:#FFB5C0;}
	.st15{fill:#EFEDEE;}
	.st16{fill:#D4D4D5;}
</style>
<g id="Page-1_1_">
	<g>
		<path id="Shape_1_" d="M16.3,1.4c-3.6,0-6.9,1.9-8.7,5s-1.9,6.9-0.1,10l-0.6,1c-0.5,0.9-1.2,1.8-2,2.5l-3.3,3.3
			c-0.7,0.7-0.7,1.7,0,2.4l0.6,0.6c0.7,0.7,1.7,0.7,2.4,0l3.3-3.3c0.8-0.8,1.6-1.4,2.5-2l1-0.6c3.7,2.1,8.3,1.6,11.5-1.2
			s4.4-7.2,2.9-11.2S20.5,1.4,16.3,1.4L16.3,1.4z M10,20.1c-1,0.6-1.9,1.3-2.7,2.1l-3.3,3.3c-0.3,0.3-0.9,0.3-1.2,0l-0.6-0.6
			c-0.3-0.3-0.3-0.9,0-1.2l3.3-3.3c0.8-0.8,1.5-1.7,2.1-2.7L8,17.2c0.7,1,1.6,1.9,2.6,2.6L10,20.1z M16.3,20.7
			c-5.1,0-9.3-4.1-9.3-9.3s4.1-9.3,9.3-9.3s9.3,4.1,9.3,9.3C25.6,16.6,21.4,20.7,16.3,20.7z"/>
		<path d="M16.3,3c-4.6,0-8.4,3.8-8.4,8.4s3.8,8.4,8.4,8.4s8.4-3.8,8.4-8.4C24.7,6.8,21,3,16.3,3z M16.3,19c-4.2,0-7.6-3.4-7.6-7.6
			s3.4-7.6,7.6-7.6s7.6,3.4,7.6,7.6C23.9,15.6,20.5,19,16.3,19z"/>
		<path d="M4.1,23.1L3.2,24c-0.1,0.1-0.2,0.3-0.1,0.4c0,0.1,0.2,0.3,0.3,0.3c0.1,0,0.3,0,0.4-0.1l0.9-0.9c0.2-0.2,0.2-0.4,0-0.6
			C4.5,23,4.2,23,4.1,23.1L4.1,23.1z"/>
		<path d="M8.4,18.8L8.2,19C8,19.1,8,19.3,8,19.4c0,0.1,0.2,0.3,0.3,0.3s0.3,0,0.4-0.1L9,19.4c0.2-0.2,0.2-0.4,0-0.6
			S8.5,18.7,8.4,18.8L8.4,18.8z"/>
		<path d="M15.3,7.7C14,7.7,13,8.7,13,10s1,2.3,2.3,2.3s2.3-1,2.3-2.3C17.6,8.7,16.6,7.7,15.3,7.7z M15.3,11.5
			c-0.8,0-1.5-0.7-1.5-1.5s0.7-1.5,1.5-1.5c0.8,0,1.5,0.7,1.5,1.5S16.1,11.5,15.3,11.5z"/>
		<path d="M20.4,11.2c-0.2,0.2-0.4,0.4-0.6,0.7c0.2-0.4,0.3-0.9,0.4-1.4c0,0,0,0,0,0c0-1.6-0.9-3.2-2.3-3.9C16.9,5.9,15.9,6,15,6
			l-0.1,0c-0.7,0-1.4,0.1-2.1,0.4c-0.6,0.4-1,0.9-1.3,1.5c-0.1,0.2-0.3,0.4-0.5,0.6c-0.3,0.3-0.6,0.7-0.8,1.2
			c-0.3,0.9,0.2,1.6,0.6,2.1l0.1,0.2c0.2,0.3,0.4,0.7,0.6,1c0.1,0.1,0.1,0.2,0.2,0.3c0.1,0.2,0.2,0.5,0.4,0.7
			c0.7,0.9,1.7,0.8,2.5,0.7c0.3,0,0.6-0.1,0.8-0.1c-0.2,0.1-0.5,0.2-0.7,0.2c-0.6,0.1-1,0.6-1.2,1.1c-0.2,0.6,0,1.2,0.4,1.6
			c0.4,0.4,1,0.6,1.6,0.4c2.9-0.8,5.4-2.4,7.3-4.7c0.4-0.4,0.5-1,0.3-1.6c-0.2-0.6-0.7-1-1.2-1.1C21.3,10.5,20.7,10.7,20.4,11.2
			L20.4,11.2z M16.1,13.8c-0.1,0-0.3-0.1-0.4-0.1c-0.4,0-0.9,0-1.3,0.1c-0.8,0.1-1.4,0.2-1.7-0.4c-0.1-0.2-0.2-0.3-0.3-0.5
			c-0.1-0.1-0.1-0.3-0.2-0.4c-0.2-0.3-0.4-0.7-0.7-1.1l-0.1-0.2c-0.4-0.5-0.6-0.9-0.5-1.3C11,9.6,11.3,9.3,11.5,9
			c0.2-0.2,0.4-0.4,0.6-0.7c0.2-0.5,0.6-0.9,1-1.2c0.5-0.2,1.1-0.4,1.7-0.3l0.1,0c0.9,0,1.8,0,2.5,0.3c1.2,0.6,1.9,1.8,1.9,3.2l0,0
			c-0.1,0.6-0.3,1.1-0.6,1.7l-0.1,0.3c-0.1,0.3-0.3,0.6-0.5,0.9c-0.4,0.3-0.8,0.5-1.3,0.8C16.6,13.9,16.4,13.9,16.1,13.8L16.1,13.8z
			 M22.1,11.6c0.1,0.1,0.1,0.1,0.2,0.2c0.2,0.3,0.2,0.7-0.1,0.9c-1.8,2.1-4.2,3.7-6.9,4.4c-0.4,0.1-0.8-0.1-0.9-0.5s0.1-0.8,0.5-0.9
			c0.8-0.2,1.5-0.5,2.3-0.9c0,0,0.1,0,0.1,0c0.5-0.3,1-0.5,1.4-0.9c0,0,0,0,0.1,0c0.9-0.6,1.6-1.3,2.3-2.1
			C21.3,11.4,21.8,11.4,22.1,11.6L22.1,11.6z"/>
	</g>
</g>
</svg>
